<mxfile host="app.diagrams.net" modified="2024-03-18T15:03:16.079Z" agent="Mozilla/5.0 (Windows NT 10.0; Win64; x64) AppleWebKit/537.36 (KHTML, like Gecko) Chrome/121.0.0.0 Safari/537.36 OPR/107.0.0.0" etag="wJFJKoC-vu7Isjs9zrLN" version="24.0.7" type="google">
  <diagram id="C5RBs43oDa-KdzZeNtuy" name="Page-1">
    <mxGraphModel grid="1" page="1" gridSize="10" guides="1" tooltips="1" connect="1" arrows="1" fold="1" pageScale="1" pageWidth="827" pageHeight="1169" math="0" shadow="0">
      <root>
        <mxCell id="WIyWlLk6GJQsqaUBKTNV-0" />
        <mxCell id="WIyWlLk6GJQsqaUBKTNV-1" parent="WIyWlLk6GJQsqaUBKTNV-0" />
        <mxCell id="u1jj7i2furlx2xskbJkL-3" value="" style="edgeStyle=orthogonalEdgeStyle;rounded=0;orthogonalLoop=1;jettySize=auto;html=1;" edge="1" parent="WIyWlLk6GJQsqaUBKTNV-1" source="u1jj7i2furlx2xskbJkL-1" target="u1jj7i2furlx2xskbJkL-2">
          <mxGeometry relative="1" as="geometry" />
        </mxCell>
        <mxCell id="u1jj7i2furlx2xskbJkL-1" value="START" style="ellipse;whiteSpace=wrap;html=1;" vertex="1" parent="WIyWlLk6GJQsqaUBKTNV-1">
          <mxGeometry x="125" y="70" width="50" height="50" as="geometry" />
        </mxCell>
        <mxCell id="u1jj7i2furlx2xskbJkL-5" value="" style="edgeStyle=orthogonalEdgeStyle;rounded=0;orthogonalLoop=1;jettySize=auto;html=1;" edge="1" parent="WIyWlLk6GJQsqaUBKTNV-1" source="u1jj7i2furlx2xskbJkL-2" target="u1jj7i2furlx2xskbJkL-4">
          <mxGeometry relative="1" as="geometry" />
        </mxCell>
        <mxCell id="u1jj7i2furlx2xskbJkL-2" value="Guest(s) gives a complaint" style="rounded=1;whiteSpace=wrap;html=1;" vertex="1" parent="WIyWlLk6GJQsqaUBKTNV-1">
          <mxGeometry x="90" y="170" width="120" height="60" as="geometry" />
        </mxCell>
        <mxCell id="u1jj7i2furlx2xskbJkL-7" value="" style="edgeStyle=orthogonalEdgeStyle;rounded=0;orthogonalLoop=1;jettySize=auto;html=1;" edge="1" parent="WIyWlLk6GJQsqaUBKTNV-1" source="u1jj7i2furlx2xskbJkL-4" target="u1jj7i2furlx2xskbJkL-6">
          <mxGeometry relative="1" as="geometry" />
        </mxCell>
        <mxCell id="u1jj7i2furlx2xskbJkL-4" value="Server receives complaint" style="rounded=1;whiteSpace=wrap;html=1;" vertex="1" parent="WIyWlLk6GJQsqaUBKTNV-1">
          <mxGeometry x="90" y="310" width="120" height="60" as="geometry" />
        </mxCell>
        <mxCell id="u1jj7i2furlx2xskbJkL-12" value="" style="edgeStyle=orthogonalEdgeStyle;rounded=0;orthogonalLoop=1;jettySize=auto;html=1;" edge="1" parent="WIyWlLk6GJQsqaUBKTNV-1" source="u1jj7i2furlx2xskbJkL-6" target="u1jj7i2furlx2xskbJkL-11">
          <mxGeometry relative="1" as="geometry" />
        </mxCell>
        <mxCell id="u1jj7i2furlx2xskbJkL-57" value="Yes" style="edgeLabel;html=1;align=center;verticalAlign=middle;resizable=0;points=[];" connectable="0" vertex="1" parent="u1jj7i2furlx2xskbJkL-12">
          <mxGeometry x="-0.2" relative="1" as="geometry">
            <mxPoint as="offset" />
          </mxGeometry>
        </mxCell>
        <mxCell id="u1jj7i2furlx2xskbJkL-16" value="" style="edgeStyle=orthogonalEdgeStyle;rounded=0;orthogonalLoop=1;jettySize=auto;html=1;" edge="1" parent="WIyWlLk6GJQsqaUBKTNV-1" source="u1jj7i2furlx2xskbJkL-6" target="u1jj7i2furlx2xskbJkL-15">
          <mxGeometry relative="1" as="geometry" />
        </mxCell>
        <mxCell id="u1jj7i2furlx2xskbJkL-58" value="No" style="edgeLabel;html=1;align=center;verticalAlign=middle;resizable=0;points=[];" connectable="0" vertex="1" parent="u1jj7i2furlx2xskbJkL-16">
          <mxGeometry x="-0.3" y="-2" relative="1" as="geometry">
            <mxPoint as="offset" />
          </mxGeometry>
        </mxCell>
        <mxCell id="u1jj7i2furlx2xskbJkL-6" value="solvable by Server?" style="rhombus;whiteSpace=wrap;html=1;rounded=1;" vertex="1" parent="WIyWlLk6GJQsqaUBKTNV-1">
          <mxGeometry x="105" y="420" width="90" height="90" as="geometry" />
        </mxCell>
        <mxCell id="u1jj7i2furlx2xskbJkL-14" value="" style="edgeStyle=orthogonalEdgeStyle;rounded=0;orthogonalLoop=1;jettySize=auto;html=1;" edge="1" parent="WIyWlLk6GJQsqaUBKTNV-1" source="u1jj7i2furlx2xskbJkL-11" target="u1jj7i2furlx2xskbJkL-13">
          <mxGeometry relative="1" as="geometry" />
        </mxCell>
        <mxCell id="u1jj7i2furlx2xskbJkL-56" value="Yes" style="edgeLabel;html=1;align=center;verticalAlign=middle;resizable=0;points=[];" connectable="0" vertex="1" parent="u1jj7i2furlx2xskbJkL-14">
          <mxGeometry y="2" relative="1" as="geometry">
            <mxPoint as="offset" />
          </mxGeometry>
        </mxCell>
        <mxCell id="u1jj7i2furlx2xskbJkL-24" value="" style="edgeStyle=orthogonalEdgeStyle;rounded=0;orthogonalLoop=1;jettySize=auto;html=1;" edge="1" parent="WIyWlLk6GJQsqaUBKTNV-1" source="u1jj7i2furlx2xskbJkL-11" target="u1jj7i2furlx2xskbJkL-23">
          <mxGeometry relative="1" as="geometry" />
        </mxCell>
        <mxCell id="u1jj7i2furlx2xskbJkL-55" value="No" style="edgeLabel;html=1;align=center;verticalAlign=middle;resizable=0;points=[];" connectable="0" vertex="1" parent="u1jj7i2furlx2xskbJkL-24">
          <mxGeometry x="0.0154" y="-1" relative="1" as="geometry">
            <mxPoint as="offset" />
          </mxGeometry>
        </mxCell>
        <mxCell id="u1jj7i2furlx2xskbJkL-11" value="Needs help?" style="rhombus;whiteSpace=wrap;html=1;rounded=1;" vertex="1" parent="WIyWlLk6GJQsqaUBKTNV-1">
          <mxGeometry x="275" y="420" width="90" height="90" as="geometry" />
        </mxCell>
        <mxCell id="u1jj7i2furlx2xskbJkL-22" value="" style="edgeStyle=orthogonalEdgeStyle;rounded=0;orthogonalLoop=1;jettySize=auto;html=1;" edge="1" parent="WIyWlLk6GJQsqaUBKTNV-1" source="u1jj7i2furlx2xskbJkL-13" target="u1jj7i2furlx2xskbJkL-21">
          <mxGeometry relative="1" as="geometry" />
        </mxCell>
        <mxCell id="u1jj7i2furlx2xskbJkL-13" value="gets help from other Servers" style="whiteSpace=wrap;html=1;rounded=1;" vertex="1" parent="WIyWlLk6GJQsqaUBKTNV-1">
          <mxGeometry x="260" y="310" width="120" height="60" as="geometry" />
        </mxCell>
        <mxCell id="u1jj7i2furlx2xskbJkL-20" value="" style="edgeStyle=orthogonalEdgeStyle;rounded=0;orthogonalLoop=1;jettySize=auto;html=1;" edge="1" parent="WIyWlLk6GJQsqaUBKTNV-1" source="u1jj7i2furlx2xskbJkL-15" target="u1jj7i2furlx2xskbJkL-19">
          <mxGeometry relative="1" as="geometry" />
        </mxCell>
        <mxCell id="u1jj7i2furlx2xskbJkL-15" value="Takes the complaint to Hostess" style="whiteSpace=wrap;html=1;rounded=1;" vertex="1" parent="WIyWlLk6GJQsqaUBKTNV-1">
          <mxGeometry x="90" y="570" width="120" height="60" as="geometry" />
        </mxCell>
        <mxCell id="u1jj7i2furlx2xskbJkL-59" style="edgeStyle=orthogonalEdgeStyle;rounded=0;orthogonalLoop=1;jettySize=auto;html=1;exitX=1;exitY=0.5;exitDx=0;exitDy=0;entryX=0.5;entryY=1;entryDx=0;entryDy=0;" edge="1" parent="WIyWlLk6GJQsqaUBKTNV-1" source="u1jj7i2furlx2xskbJkL-19" target="u1jj7i2furlx2xskbJkL-23">
          <mxGeometry relative="1" as="geometry" />
        </mxCell>
        <mxCell id="u1jj7i2furlx2xskbJkL-61" value="Yes" style="edgeLabel;html=1;align=center;verticalAlign=middle;resizable=0;points=[];" connectable="0" vertex="1" parent="u1jj7i2furlx2xskbJkL-59">
          <mxGeometry x="0.5304" y="3" relative="1" as="geometry">
            <mxPoint as="offset" />
          </mxGeometry>
        </mxCell>
        <mxCell id="u1jj7i2furlx2xskbJkL-66" style="edgeStyle=orthogonalEdgeStyle;rounded=0;orthogonalLoop=1;jettySize=auto;html=1;exitX=1;exitY=0.5;exitDx=0;exitDy=0;entryX=0;entryY=0.5;entryDx=0;entryDy=0;" edge="1" parent="WIyWlLk6GJQsqaUBKTNV-1" source="u1jj7i2furlx2xskbJkL-19" target="u1jj7i2furlx2xskbJkL-42">
          <mxGeometry relative="1" as="geometry">
            <Array as="points">
              <mxPoint x="830" y="600" />
              <mxPoint x="830" y="430" />
            </Array>
          </mxGeometry>
        </mxCell>
        <mxCell id="u1jj7i2furlx2xskbJkL-19" value="Solvable by Hostess?" style="rhombus;whiteSpace=wrap;html=1;rounded=1;" vertex="1" parent="WIyWlLk6GJQsqaUBKTNV-1">
          <mxGeometry x="275" y="555" width="90" height="90" as="geometry" />
        </mxCell>
        <mxCell id="u1jj7i2furlx2xskbJkL-26" value="" style="edgeStyle=orthogonalEdgeStyle;rounded=0;orthogonalLoop=1;jettySize=auto;html=1;" edge="1" parent="WIyWlLk6GJQsqaUBKTNV-1" source="u1jj7i2furlx2xskbJkL-21" target="u1jj7i2furlx2xskbJkL-25">
          <mxGeometry relative="1" as="geometry" />
        </mxCell>
        <mxCell id="u1jj7i2furlx2xskbJkL-21" value="solves the issue" style="whiteSpace=wrap;html=1;rounded=1;" vertex="1" parent="WIyWlLk6GJQsqaUBKTNV-1">
          <mxGeometry x="260" y="170" width="120" height="60" as="geometry" />
        </mxCell>
        <mxCell id="u1jj7i2furlx2xskbJkL-27" style="edgeStyle=orthogonalEdgeStyle;rounded=0;orthogonalLoop=1;jettySize=auto;html=1;exitX=0.5;exitY=0;exitDx=0;exitDy=0;entryX=0.5;entryY=1;entryDx=0;entryDy=0;" edge="1" parent="WIyWlLk6GJQsqaUBKTNV-1" source="u1jj7i2furlx2xskbJkL-23" target="u1jj7i2furlx2xskbJkL-25">
          <mxGeometry relative="1" as="geometry" />
        </mxCell>
        <mxCell id="u1jj7i2furlx2xskbJkL-23" value="solves the issue on site" style="whiteSpace=wrap;html=1;rounded=1;" vertex="1" parent="WIyWlLk6GJQsqaUBKTNV-1">
          <mxGeometry x="430" y="435" width="120" height="60" as="geometry" />
        </mxCell>
        <mxCell id="u1jj7i2furlx2xskbJkL-29" value="" style="edgeStyle=orthogonalEdgeStyle;rounded=0;orthogonalLoop=1;jettySize=auto;html=1;" edge="1" parent="WIyWlLk6GJQsqaUBKTNV-1" source="u1jj7i2furlx2xskbJkL-25" target="u1jj7i2furlx2xskbJkL-28">
          <mxGeometry relative="1" as="geometry" />
        </mxCell>
        <mxCell id="u1jj7i2furlx2xskbJkL-25" value="asks the guest(s) if he is happy now" style="whiteSpace=wrap;html=1;rounded=1;" vertex="1" parent="WIyWlLk6GJQsqaUBKTNV-1">
          <mxGeometry x="430" y="170" width="120" height="60" as="geometry" />
        </mxCell>
        <mxCell id="u1jj7i2furlx2xskbJkL-31" value="" style="edgeStyle=orthogonalEdgeStyle;rounded=0;orthogonalLoop=1;jettySize=auto;html=1;" edge="1" parent="WIyWlLk6GJQsqaUBKTNV-1" source="u1jj7i2furlx2xskbJkL-28" target="u1jj7i2furlx2xskbJkL-30">
          <mxGeometry relative="1" as="geometry" />
        </mxCell>
        <mxCell id="u1jj7i2furlx2xskbJkL-33" style="edgeStyle=orthogonalEdgeStyle;rounded=0;orthogonalLoop=1;jettySize=auto;html=1;exitX=0.5;exitY=1;exitDx=0;exitDy=0;entryX=0.5;entryY=0;entryDx=0;entryDy=0;" edge="1" parent="WIyWlLk6GJQsqaUBKTNV-1" source="u1jj7i2furlx2xskbJkL-28" target="u1jj7i2furlx2xskbJkL-32">
          <mxGeometry relative="1" as="geometry" />
        </mxCell>
        <mxCell id="u1jj7i2furlx2xskbJkL-52" value="Yes" style="edgeLabel;html=1;align=center;verticalAlign=middle;resizable=0;points=[];" connectable="0" vertex="1" parent="u1jj7i2furlx2xskbJkL-33">
          <mxGeometry x="-0.7844" y="3" relative="1" as="geometry">
            <mxPoint as="offset" />
          </mxGeometry>
        </mxCell>
        <mxCell id="u1jj7i2furlx2xskbJkL-39" value="" style="edgeStyle=orthogonalEdgeStyle;rounded=0;orthogonalLoop=1;jettySize=auto;html=1;" edge="1" parent="WIyWlLk6GJQsqaUBKTNV-1" source="u1jj7i2furlx2xskbJkL-28" target="u1jj7i2furlx2xskbJkL-38">
          <mxGeometry relative="1" as="geometry" />
        </mxCell>
        <mxCell id="u1jj7i2furlx2xskbJkL-51" value="No" style="edgeLabel;html=1;align=center;verticalAlign=middle;resizable=0;points=[];" connectable="0" vertex="1" parent="u1jj7i2furlx2xskbJkL-39">
          <mxGeometry x="-0.0462" y="-1" relative="1" as="geometry">
            <mxPoint as="offset" />
          </mxGeometry>
        </mxCell>
        <mxCell id="u1jj7i2furlx2xskbJkL-28" value="Guest(s) happy?" style="rhombus;whiteSpace=wrap;html=1;rounded=1;" vertex="1" parent="WIyWlLk6GJQsqaUBKTNV-1">
          <mxGeometry x="650" y="155" width="90" height="90" as="geometry" />
        </mxCell>
        <mxCell id="u1jj7i2furlx2xskbJkL-64" style="edgeStyle=orthogonalEdgeStyle;rounded=0;orthogonalLoop=1;jettySize=auto;html=1;exitX=0.5;exitY=1;exitDx=0;exitDy=0;entryX=0;entryY=0.5;entryDx=0;entryDy=0;" edge="1" parent="WIyWlLk6GJQsqaUBKTNV-1" source="u1jj7i2furlx2xskbJkL-30" target="u1jj7i2furlx2xskbJkL-63">
          <mxGeometry relative="1" as="geometry" />
        </mxCell>
        <mxCell id="u1jj7i2furlx2xskbJkL-30" value="guest(s) continues his/their&amp;nbsp; stay" style="whiteSpace=wrap;html=1;rounded=1;" vertex="1" parent="WIyWlLk6GJQsqaUBKTNV-1">
          <mxGeometry x="560" y="340" width="120" height="60" as="geometry" />
        </mxCell>
        <mxCell id="u1jj7i2furlx2xskbJkL-65" style="edgeStyle=orthogonalEdgeStyle;rounded=0;orthogonalLoop=1;jettySize=auto;html=1;exitX=0.5;exitY=1;exitDx=0;exitDy=0;entryX=1;entryY=0.5;entryDx=0;entryDy=0;" edge="1" parent="WIyWlLk6GJQsqaUBKTNV-1" source="u1jj7i2furlx2xskbJkL-32" target="u1jj7i2furlx2xskbJkL-63">
          <mxGeometry relative="1" as="geometry" />
        </mxCell>
        <mxCell id="u1jj7i2furlx2xskbJkL-32" value="Server(s) continues shift" style="whiteSpace=wrap;html=1;rounded=1;" vertex="1" parent="WIyWlLk6GJQsqaUBKTNV-1">
          <mxGeometry x="707" y="340" width="120" height="60" as="geometry" />
        </mxCell>
        <mxCell id="u1jj7i2furlx2xskbJkL-41" value="" style="edgeStyle=orthogonalEdgeStyle;rounded=0;orthogonalLoop=1;jettySize=auto;html=1;" edge="1" parent="WIyWlLk6GJQsqaUBKTNV-1" source="u1jj7i2furlx2xskbJkL-38" target="u1jj7i2furlx2xskbJkL-40">
          <mxGeometry relative="1" as="geometry" />
        </mxCell>
        <mxCell id="u1jj7i2furlx2xskbJkL-50" value="No" style="edgeLabel;html=1;align=center;verticalAlign=middle;resizable=0;points=[];" connectable="0" vertex="1" parent="u1jj7i2furlx2xskbJkL-41">
          <mxGeometry x="0.0444" relative="1" as="geometry">
            <mxPoint as="offset" />
          </mxGeometry>
        </mxCell>
        <mxCell id="u1jj7i2furlx2xskbJkL-43" value="" style="edgeStyle=orthogonalEdgeStyle;rounded=0;orthogonalLoop=1;jettySize=auto;html=1;" edge="1" parent="WIyWlLk6GJQsqaUBKTNV-1" source="u1jj7i2furlx2xskbJkL-38" target="u1jj7i2furlx2xskbJkL-42">
          <mxGeometry relative="1" as="geometry" />
        </mxCell>
        <mxCell id="u1jj7i2furlx2xskbJkL-49" value="Yes" style="edgeLabel;html=1;align=center;verticalAlign=middle;resizable=0;points=[];" connectable="0" vertex="1" parent="u1jj7i2furlx2xskbJkL-43">
          <mxGeometry x="-0.28" y="-3" relative="1" as="geometry">
            <mxPoint as="offset" />
          </mxGeometry>
        </mxCell>
        <mxCell id="u1jj7i2furlx2xskbJkL-38" value="&lt;br&gt;&lt;span style=&quot;color: rgb(0, 0, 0); font-family: Helvetica; font-size: 12px; font-style: normal; font-variant-ligatures: normal; font-variant-caps: normal; font-weight: 400; letter-spacing: normal; orphans: 2; text-align: center; text-indent: 0px; text-transform: none; widows: 2; word-spacing: 0px; -webkit-text-stroke-width: 0px; white-space: normal; background-color: rgb(251, 251, 251); text-decoration-thickness: initial; text-decoration-style: initial; text-decoration-color: initial; display: inline !important; float: none;&quot;&gt;asks if the guest(s) wants the Manager?&lt;/span&gt;&lt;div&gt;&lt;br&gt;&lt;/div&gt;" style="rhombus;whiteSpace=wrap;html=1;rounded=1;" vertex="1" parent="WIyWlLk6GJQsqaUBKTNV-1">
          <mxGeometry x="870" y="125" width="140" height="150" as="geometry" />
        </mxCell>
        <mxCell id="u1jj7i2furlx2xskbJkL-40" value="Guest leaves unhappy" style="whiteSpace=wrap;html=1;rounded=1;" vertex="1" parent="WIyWlLk6GJQsqaUBKTNV-1">
          <mxGeometry x="1080" y="560" width="120" height="60" as="geometry" />
        </mxCell>
        <mxCell id="u1jj7i2furlx2xskbJkL-45" value="" style="edgeStyle=orthogonalEdgeStyle;rounded=0;orthogonalLoop=1;jettySize=auto;html=1;" edge="1" parent="WIyWlLk6GJQsqaUBKTNV-1" source="u1jj7i2furlx2xskbJkL-42" target="u1jj7i2furlx2xskbJkL-44">
          <mxGeometry relative="1" as="geometry" />
        </mxCell>
        <mxCell id="u1jj7i2furlx2xskbJkL-42" value="Manager comes to solve the issue" style="whiteSpace=wrap;html=1;rounded=1;" vertex="1" parent="WIyWlLk6GJQsqaUBKTNV-1">
          <mxGeometry x="880" y="400" width="120" height="60" as="geometry" />
        </mxCell>
        <mxCell id="u1jj7i2furlx2xskbJkL-53" style="edgeStyle=orthogonalEdgeStyle;rounded=0;orthogonalLoop=1;jettySize=auto;html=1;exitX=1;exitY=0.5;exitDx=0;exitDy=0;entryX=0;entryY=0.5;entryDx=0;entryDy=0;" edge="1" parent="WIyWlLk6GJQsqaUBKTNV-1" source="u1jj7i2furlx2xskbJkL-44" target="u1jj7i2furlx2xskbJkL-40">
          <mxGeometry relative="1" as="geometry" />
        </mxCell>
        <mxCell id="u1jj7i2furlx2xskbJkL-54" value="No" style="edgeLabel;html=1;align=center;verticalAlign=middle;resizable=0;points=[];" connectable="0" vertex="1" parent="u1jj7i2furlx2xskbJkL-53">
          <mxGeometry x="0.1059" y="1" relative="1" as="geometry">
            <mxPoint as="offset" />
          </mxGeometry>
        </mxCell>
        <mxCell id="u1jj7i2furlx2xskbJkL-67" style="edgeStyle=orthogonalEdgeStyle;rounded=0;orthogonalLoop=1;jettySize=auto;html=1;exitX=0.5;exitY=1;exitDx=0;exitDy=0;" edge="1" parent="WIyWlLk6GJQsqaUBKTNV-1" source="u1jj7i2furlx2xskbJkL-44" target="u1jj7i2furlx2xskbJkL-63">
          <mxGeometry relative="1" as="geometry" />
        </mxCell>
        <mxCell id="u1jj7i2furlx2xskbJkL-44" value="Guest(s) happy now?" style="rhombus;whiteSpace=wrap;html=1;rounded=1;" vertex="1" parent="WIyWlLk6GJQsqaUBKTNV-1">
          <mxGeometry x="885" y="530" width="110" height="120" as="geometry" />
        </mxCell>
        <mxCell id="u1jj7i2furlx2xskbJkL-63" value="END" style="ellipse;whiteSpace=wrap;html=1;" vertex="1" parent="WIyWlLk6GJQsqaUBKTNV-1">
          <mxGeometry x="670" y="420" width="50" height="50" as="geometry" />
        </mxCell>
      </root>
    </mxGraphModel>
  </diagram>
</mxfile>
